<svg xmlns="http://www.w3.org/2000/svg" x="0px" y="0px"
width="80" height="80"
viewBox="0 0 172 172"
style=" fill:#000000;"><g fill="none" fill-rule="nonzero" stroke="none" stroke-width="1" stroke-linecap="butt" stroke-linejoin="miter" stroke-miterlimit="10" stroke-dasharray="" stroke-dashoffset="0" font-family="none" font-weight="none" font-size="none" text-anchor="none" style="mix-blend-mode: normal"><path d="M0,172v-172h172v172z" fill="none"></path><g fill="#ec5858"><path d="M0,0v68.8h35.3675c1.12875,-9.16437 3.5475,-20.88187 8.6,-25.4775c4.71656,-4.28656 15.99063,-6.57094 24.8325,-7.74v-35.5825zM80.84,41.28c-4.12531,0 -27.07656,2.39188 -32.25,7.095c-5.63031,5.11969 -7.31,29.95219 -7.31,32.465c0,3.73563 1.98875,27.14375 7.095,32.25c3.9775,4.36719 19.76656,6.31563 27.8425,6.9875c1.51844,-11.11281 6.50375,-21.33875 14.5125,-29.3475c8.00875,-8.00875 18.23469,-12.99406 29.3475,-14.5125c-0.69875,-8.14312 -2.74125,-23.59625 -6.7725,-27.6275c-5.11969,-5.63031 -29.95219,-7.31 -32.465,-7.31zM127.28,82.56c-12.01312,0 -23.30062,4.59563 -31.7125,13.0075c-8.41187,8.41188 -13.0075,19.69938 -13.0075,31.7125c0,12.01313 4.59563,23.30063 13.0075,31.7125c8.41188,8.41188 19.69938,13.0075 31.7125,13.0075c12.01313,0 23.30063,-4.59562 31.7125,-13.0075c8.41188,-8.41187 13.0075,-19.69937 13.0075,-31.7125c0,-12.01312 -4.59562,-23.30062 -13.0075,-31.7125c-8.41187,-8.41187 -19.69937,-13.0075 -31.7125,-13.0075z"></path></g></g></svg>