<svg xmlns="http://www.w3.org/2000/svg" x="0px" y="0px"
width="80" height="80"
viewBox="0 0 172 172"
style=" fill:#000000;"><g fill="none" fill-rule="nonzero" stroke="none" stroke-width="1" stroke-linecap="butt" stroke-linejoin="miter" stroke-miterlimit="10" stroke-dasharray="" stroke-dashoffset="0" font-family="none" font-weight="none" font-size="none" text-anchor="none" style="mix-blend-mode: normal"><path d="M0,172v-172h172v172z" fill="none"></path><g fill="#ffffff"><path d="M132.44,25.8c-5.16,0 -21.40001,0.04782 -35.61609,14.26391c-4.54325,4.54324 -16.02726,18.61897 -26.5693,31.74273c-0.72714,0.90521 -1.21078,1.52402 -1.92492,2.41539l-36.03937,8.38164c-0.39495,0.09187 -0.74475,0.32031 -0.98766,0.645l-5.16,6.88c-0.33881,0.45286 -0.43336,1.04333 -0.2529,1.57933c0.18046,0.53601 0.61287,0.94906 1.15657,1.10481l23.65336,6.75906l2.24742,2.24742l-4.57547,9.15094c-5.4827,0.16162 -9.73283,2.30861 -12.88656,5.46234c-3.27951,3.27951 -5.42171,7.59123 -6.8464,11.86531c-2.84939,8.54817 -2.83867,17.04211 -2.83867,17.04211c0.00005,0.47495 0.38505,0.85995 0.86,0.86c0,0 8.49394,0.01066 17.04211,-2.83867c4.27409,-1.42469 8.5858,-3.56689 11.86531,-6.8464c3.15373,-3.15374 5.30072,-7.40386 5.46234,-12.88656l9.15094,-4.57547l2.24742,2.24742l6.75906,23.65336c0.15574,0.5437 0.5688,0.97611 1.10481,1.15657c0.53601,0.18046 1.12648,0.08591 1.57933,-0.2529l6.88,-5.16c0.32469,-0.24291 0.55313,-0.59271 0.645,-0.98766l8.38164,-36.03937c0.89137,-0.71415 1.51018,-1.19779 2.41539,-1.92492c13.12376,-10.54204 27.19949,-22.02605 31.74273,-26.5693c14.21608,-14.21608 14.26391,-30.45609 14.26391,-35.61609c0,-4.41467 -0.43775,-7.14564 -0.92719,-8.85867c-0.24472,-0.85651 -0.50451,-1.45739 -0.7357,-1.88125c-0.2312,-0.42386 -0.56102,-0.79617 -0.56102,-0.79617c0,0 -0.37231,-0.32982 -0.79617,-0.56102c-0.42386,-0.2312 -1.02474,-0.49098 -1.88125,-0.7357c-1.71303,-0.48944 -4.44401,-0.92719 -8.85867,-0.92719zM132.44,29.24c4.18533,0 6.61436,0.42225 7.91133,0.79281c0.64304,0.18372 1.00314,0.35158 1.17242,0.44344c0.09185,0.16928 0.25971,0.52938 0.44344,1.17242c0.37057,1.29697 0.79281,3.72599 0.79281,7.91133c0,3.19839 0.0133,10.07242 -3.14102,18.00289l-12.59094,-12.59094l-12.59094,-12.59094c7.93047,-3.15432 14.8045,-3.14102 18.00289,-3.14102zM112.74063,33.11672l13.07133,13.07133l13.07133,13.07133c-1.96364,4.37822 -4.9038,9.00895 -9.37938,13.48453c-4.05676,4.05675 -18.36103,15.79274 -31.46727,26.3207c-6.13473,4.9279 -11.71024,9.35821 -15.97719,12.73875l-3.1914,-3.19141c-0.16204,-0.16747 -0.38509,-0.26203 -0.61812,-0.26203c-0.3504,0.00007 -0.66573,0.21271 -0.79714,0.53754c-0.13141,0.32483 -0.05262,0.6969 0.19917,0.94059l3.05031,3.05031c-3.33183,2.63537 -6.15385,4.86087 -6.61125,5.22047l-20.18984,-20.18984c0.3596,-0.4574 2.5851,-3.27942 5.22047,-6.61125l15.09031,15.09031c0.21571,0.22464 0.536,0.31512 0.83737,0.23655c0.30136,-0.07857 0.53671,-0.31392 0.61528,-0.61528c0.07857,-0.30136 -0.01191,-0.62166 -0.23655,-0.83737l-15.23141,-15.2314c3.38054,-4.26695 7.81085,-9.84246 12.73875,-15.97719c10.52796,-13.10624 22.26395,-27.41051 26.3207,-31.46727c4.47558,-4.47558 9.10631,-7.41573 13.48453,-9.37937zM105.78,51.6c-8.06422,0 -14.62,6.55579 -14.62,14.62c0,8.06421 6.55578,14.62 14.62,14.62c8.06422,0 14.62,-6.55579 14.62,-14.62c0,-8.06421 -6.55578,-14.62 -14.62,-14.62zM105.78,53.32c7.13466,0 12.9,5.76534 12.9,12.9c0,7.13466 -5.76534,12.9 -12.9,12.9c-7.13466,0 -12.9,-5.76534 -12.9,-12.9c0,-7.13466 5.76534,-12.9 12.9,-12.9zM104.03313,56.93133c-0.04863,0.00262 -0.09696,0.00936 -0.14445,0.02016c-4.31961,0.87641 -7.56867,4.70065 -7.56867,9.26852c0,5.21386 4.24614,9.46 9.46,9.46c3.87013,0 7.19964,-2.33602 8.66047,-5.67398c0.12367,-0.28145 0.08777,-0.6075 -0.09416,-0.85531c-0.18193,-0.24781 -0.48226,-0.37972 -0.78783,-0.34604c-0.30557,0.03368 -0.56996,0.22784 -0.69355,0.50932c-1.19485,2.73019 -3.90649,4.64602 -7.08492,4.64602c-4.28398,0 -7.74,-3.45602 -7.74,-7.74c0,-3.75349 2.66086,-6.8658 6.19133,-7.58211c0.45209,-0.0755 0.76554,-0.49227 0.71267,-0.94756c-0.05288,-0.45529 -0.45351,-0.78912 -0.91087,-0.759zM107.5,56.93133c-0.44939,-0.01059 -0.83115,0.32666 -0.87605,0.77393c-0.0449,0.44727 0.26219,0.85368 0.70472,0.93263c1.12115,0.22668 2.14439,0.71683 3.05031,1.39078c0.24501,0.19937 0.57959,0.2484 0.8715,0.1277c0.29191,-0.1207 0.49417,-0.3917 0.52683,-0.70589c0.03266,-0.31419 -0.10953,-0.621 -0.37037,-0.79916c-1.0824,-0.80524 -2.3387,-1.4174 -3.73562,-1.69984c-0.05629,-0.01244 -0.11369,-0.0192 -0.17133,-0.02016zM113.6275,61.90992c-0.28882,0.00681 -0.55493,0.15816 -0.70841,0.40292c-0.15348,0.24476 -0.17383,0.55022 -0.05417,0.81318c0.21813,0.49903 0.38867,1.0119 0.49719,1.54531c0.09462,0.46569 0.54884,0.7665 1.01453,0.67188c0.46569,-0.09462 0.7665,-0.54884 0.67188,-1.01453c-0.13572,-0.66715 -0.34466,-1.2998 -0.60469,-1.89469c-0.13824,-0.32611 -0.46227,-0.53413 -0.81633,-0.52406zM64.86953,78.56234c-7.34053,9.19954 -13.09221,16.4718 -13.90781,17.50906l-20.56609,-5.87891l3.28547,-4.38062zM55.51031,104.3825l12.10719,12.10719l-7.0782,3.53742l-8.56641,-8.56641zM93.43766,107.13047l-7.24953,31.18844l-4.38062,3.28547l-5.87891,-20.56609c1.03726,-0.8156 8.30952,-6.56729 17.50906,-13.90781zM48.40859,112.68688c0.07145,0.11968 0.15718,0.23023 0.25531,0.32922l2.44227,2.44227c-6.94373,1.01173 -10.79269,5.41986 -12.75891,9.74555c-2.23937,4.92662 -2.22727,9.81609 -2.22727,9.81609c0.00005,0.47495 0.38505,0.85995 0.86,0.86c0,0 4.88947,0.01204 9.81609,-2.22727c4.32569,-1.96622 8.73382,-5.81517 9.74555,-12.75891l2.44227,2.44227c0.09899,0.09813 0.20954,0.18386 0.32922,0.25531c-0.14777,5.0564 -2.07058,8.8162 -4.9618,11.70742c-3.00924,3.00924 -7.08252,5.05954 -11.19344,6.42985c-7.48671,2.49557 -14.28706,2.66603 -15.57406,2.6875c0.02147,-1.287 0.19193,-8.08736 2.6875,-15.57406c1.37031,-4.11091 3.42061,-8.1842 6.42985,-11.19344c2.89122,-2.89122 6.65102,-4.81403 11.70742,-4.9618zM52.66156,117.01375l2.32469,2.32469c-0.50796,7.25298 -4.65573,10.81855 -8.90234,12.74883c-3.78054,1.71843 -6.99656,1.93516 -8.15656,1.98539c0.05022,-1.16 0.26696,-4.37602 1.98539,-8.15656c1.93028,-4.24662 5.49585,-8.39438 12.74883,-8.90234z"></path></g></g></svg>